<svg width="24" height="24" xmlns="http://www.w3.org/2000/svg" xmlns:xlink="http://www.w3.org/1999/xlink"><defs><path d="M15.383 0h743.234c5.349 0 7.289.557 9.244 1.603a10.904 10.904 0 0 1 4.536 4.536c1.046 1.955 1.603 3.895 1.603 9.244v665.234c0 5.349-.557 7.289-1.603 9.244a10.904 10.904 0 0 1-4.536 4.536c-1.955 1.046-3.895 1.603-9.244 1.603H15.383c-5.349 0-7.289-.557-9.244-1.603a10.904 10.904 0 0 1-4.536-4.536C.557 687.906 0 685.966 0 680.617V15.383c0-5.349.557-7.289 1.603-9.244a10.904 10.904 0 0 1 4.536-4.536C8.094.557 10.034 0 15.383 0z" id="a"/><filter x="-11.8%" y="-12.8%" width="123.5%" height="126.1%" filterUnits="objectBoundingBox" id="b"><feOffset dy="2" in="SourceAlpha" result="shadowOffsetOuter1"/><feGaussianBlur stdDeviation="30" in="shadowOffsetOuter1" result="shadowBlurOuter1"/><feColorMatrix values="0 0 0 0 0.0862745098 0 0 0 0 0.121568627 0 0 0 0 0.364705882 0 0 0 0.15 0" in="shadowBlurOuter1"/></filter></defs><g fill="none" fill-rule="evenodd"><path fill="#FFF" d="M-110-1080h1500v2799H-110z"/><g transform="translate(-32 -648)"><mask id="c" fill="#fff"><use xlink:href="#a"/></mask><g fill-rule="nonzero"><use fill="#000" filter="url(#b)" xlink:href="#a"/><use fill="#FFF" xlink:href="#a"/></g><g mask="url(#c)"><path d="M43 653v-1a1 1 0 0 1 2 0v1h6a1 1 0 0 1 0 2h-1v11a1 1 0 0 1-1 1H39a1 1 0 0 1-1-1v-11h-1a1 1 0 1 1 0-2h6zm5 2h-8v10h8v-10z" fill="#90A4AE"/></g></g></g></svg>