<svg viewBox="0 0 24 24" xmlns="http://www.w3.org/2000/svg" fill-rule="evenodd" clip-rule="evenodd" stroke-linejoin="round" stroke-miterlimit="1.414"><path fill="#fff" d="M-110-1080h1500v2799H-110z"/><g fill-rule="nonzero"><path d="M-16.617-648h743.234c5.349 0 7.289.557 9.244 1.603a10.9 10.9 0 0 1 4.536 4.536c1.046 1.955 1.603 3.895 1.603 9.244V32.617c0 5.349-.557 7.289-1.603 9.244a10.9 10.9 0 0 1-4.536 4.536c-1.955 1.046-3.895 1.603-9.244 1.603H-16.617c-5.349 0-7.289-.557-9.244-1.603a10.9 10.9 0 0 1-4.536-4.536C-31.443 39.906-32 37.966-32 32.617v-665.234c0-5.349.557-7.289 1.603-9.244a10.9 10.9 0 0 1 4.536-4.536c1.955-1.046 3.895-1.603 9.244-1.603z"/><path d="M-16.617-648h743.234c5.349 0 7.289.557 9.244 1.603a10.9 10.9 0 0 1 4.536 4.536c1.046 1.955 1.603 3.895 1.603 9.244V32.617c0 5.349-.557 7.289-1.603 9.244a10.9 10.9 0 0 1-4.536 4.536c-1.955 1.046-3.895 1.603-9.244 1.603H-16.617c-5.349 0-7.289-.557-9.244-1.603a10.9 10.9 0 0 1-4.536-4.536C-31.443 39.906-32 37.966-32 32.617v-665.234c0-5.349.557-7.289 1.603-9.244a10.9 10.9 0 0 1 4.536-4.536c1.955-1.046 3.895-1.603 9.244-1.603z" fill="#fff"/></g><path d="M11 5V4a1 1 0 0 1 2 0v1h6a1 1 0 0 1 0 2h-1v11a1 1 0 0 1-1 1H7a1 1 0 0 1-1-1V7H5a1 1 0 0 1 0-2h6zm5 2H8v10h8V7z" fill="#90a4ae"/><path d="M11 5V4a1 1 0 0 1 2 0v1h6a1 1 0 0 1 0 2h-1v11a1 1 0 0 1-1 1H7a1 1 0 0 1-1-1V7H5a1 1 0 0 1 0-2h6zm5 2H8v10h8V7z" fill="#ef4b54"/></svg>